<mxfile host="app.diagrams.net" modified="2021-11-28T22:38:08.865Z" agent="5.0 (Macintosh; Intel Mac OS X 10_15_7) AppleWebKit/537.36 (KHTML, like Gecko) Chrome/96.0.4664.55 Safari/537.36" etag="WrnGzb6LCgJU1zFcPyy6" version="15.8.6" type="github">
  <diagram id="d-S6tAqhZGKesx9Gug6l" name="Page-1">
    <mxGraphModel dx="1071" dy="539" grid="1" gridSize="10" guides="1" tooltips="1" connect="1" arrows="1" fold="1" page="1" pageScale="1" pageWidth="1100" pageHeight="850" math="0" shadow="0">
      <root>
        <mxCell id="0" />
        <mxCell id="1" parent="0" />
        <mxCell id="b-2rTRyFEP5zb1sUs2k6-5" value="" style="edgeStyle=orthogonalEdgeStyle;rounded=0;orthogonalLoop=1;jettySize=auto;html=1;endArrow=none;endFill=0;" parent="1" source="b-2rTRyFEP5zb1sUs2k6-1" target="b-2rTRyFEP5zb1sUs2k6-2" edge="1">
          <mxGeometry relative="1" as="geometry" />
        </mxCell>
        <mxCell id="b-2rTRyFEP5zb1sUs2k6-14" style="rounded=0;orthogonalLoop=1;jettySize=auto;html=1;exitX=0.5;exitY=0;exitDx=0;exitDy=0;endArrow=none;endFill=0;" parent="1" source="b-2rTRyFEP5zb1sUs2k6-1" edge="1">
          <mxGeometry relative="1" as="geometry">
            <mxPoint x="297.949528099708" y="169.745602054114" as="targetPoint" />
          </mxGeometry>
        </mxCell>
        <mxCell id="b-2rTRyFEP5zb1sUs2k6-30" style="edgeStyle=none;rounded=0;orthogonalLoop=1;jettySize=auto;html=1;exitX=1;exitY=0;exitDx=0;exitDy=0;entryX=0;entryY=0.5;entryDx=0;entryDy=0;endArrow=none;endFill=0;" parent="1" source="b-2rTRyFEP5zb1sUs2k6-1" target="b-2rTRyFEP5zb1sUs2k6-24" edge="1">
          <mxGeometry relative="1" as="geometry" />
        </mxCell>
        <mxCell id="b-2rTRyFEP5zb1sUs2k6-32" style="edgeStyle=none;rounded=0;orthogonalLoop=1;jettySize=auto;html=1;exitX=1;exitY=0.5;exitDx=0;exitDy=0;entryX=0;entryY=0.5;entryDx=0;entryDy=0;endArrow=none;endFill=0;" parent="1" source="b-2rTRyFEP5zb1sUs2k6-1" target="b-2rTRyFEP5zb1sUs2k6-27" edge="1">
          <mxGeometry relative="1" as="geometry" />
        </mxCell>
        <mxCell id="b-2rTRyFEP5zb1sUs2k6-34" style="edgeStyle=none;rounded=0;orthogonalLoop=1;jettySize=auto;html=1;exitX=1;exitY=0.75;exitDx=0;exitDy=0;entryX=0;entryY=0.5;entryDx=0;entryDy=0;endArrow=none;endFill=0;" parent="1" source="b-2rTRyFEP5zb1sUs2k6-1" target="b-2rTRyFEP5zb1sUs2k6-28" edge="1">
          <mxGeometry relative="1" as="geometry" />
        </mxCell>
        <mxCell id="b-2rTRyFEP5zb1sUs2k6-36" style="edgeStyle=none;rounded=0;orthogonalLoop=1;jettySize=auto;html=1;exitX=1;exitY=1;exitDx=0;exitDy=0;entryX=0;entryY=0.5;entryDx=0;entryDy=0;endArrow=none;endFill=0;" parent="1" source="b-2rTRyFEP5zb1sUs2k6-1" target="b-2rTRyFEP5zb1sUs2k6-29" edge="1">
          <mxGeometry relative="1" as="geometry" />
        </mxCell>
        <mxCell id="b-2rTRyFEP5zb1sUs2k6-1" value="Benutzer" style="whiteSpace=wrap;html=1;align=center;" parent="1" vertex="1">
          <mxGeometry x="330" y="370" width="100" height="40" as="geometry" />
        </mxCell>
        <mxCell id="b-2rTRyFEP5zb1sUs2k6-2" value="besitzen" style="shape=rhombus;double=1;perimeter=rhombusPerimeter;whiteSpace=wrap;html=1;align=center;" parent="1" vertex="1">
          <mxGeometry x="170" y="360" width="120" height="60" as="geometry" />
        </mxCell>
        <mxCell id="b-2rTRyFEP5zb1sUs2k6-4" value="Fahrerlaubnis" style="shape=ext;margin=3;double=1;whiteSpace=wrap;html=1;align=center;" parent="1" vertex="1">
          <mxGeometry x="20" y="370" width="100" height="40" as="geometry" />
        </mxCell>
        <mxCell id="b-2rTRyFEP5zb1sUs2k6-7" value="" style="shape=link;html=1;rounded=0;endArrow=none;endFill=0;entryX=0;entryY=0.5;entryDx=0;entryDy=0;exitX=1;exitY=0.5;exitDx=0;exitDy=0;" parent="1" source="b-2rTRyFEP5zb1sUs2k6-4" target="b-2rTRyFEP5zb1sUs2k6-2" edge="1">
          <mxGeometry relative="1" as="geometry">
            <mxPoint x="100" y="390" as="sourcePoint" />
            <mxPoint x="210" y="390" as="targetPoint" />
          </mxGeometry>
        </mxCell>
        <mxCell id="b-2rTRyFEP5zb1sUs2k6-8" value="" style="resizable=0;html=1;align=left;verticalAlign=bottom;" parent="b-2rTRyFEP5zb1sUs2k6-7" connectable="0" vertex="1">
          <mxGeometry x="-1" relative="1" as="geometry" />
        </mxCell>
        <mxCell id="b-2rTRyFEP5zb1sUs2k6-13" value="IDBenutzer" style="ellipse;whiteSpace=wrap;html=1;align=center;" parent="1" vertex="1">
          <mxGeometry x="240" y="130" width="100" height="40" as="geometry" />
        </mxCell>
        <mxCell id="b-2rTRyFEP5zb1sUs2k6-17" style="edgeStyle=none;rounded=0;orthogonalLoop=1;jettySize=auto;html=1;exitX=0.5;exitY=1;exitDx=0;exitDy=0;entryX=0.5;entryY=0;entryDx=0;entryDy=0;endArrow=none;endFill=0;" parent="1" source="b-2rTRyFEP5zb1sUs2k6-15" target="b-2rTRyFEP5zb1sUs2k6-1" edge="1">
          <mxGeometry relative="1" as="geometry" />
        </mxCell>
        <mxCell id="b-2rTRyFEP5zb1sUs2k6-15" value="Namen" style="ellipse;whiteSpace=wrap;html=1;align=center;" parent="1" vertex="1">
          <mxGeometry x="310" y="170" width="100" height="40" as="geometry" />
        </mxCell>
        <mxCell id="b-2rTRyFEP5zb1sUs2k6-18" style="edgeStyle=none;rounded=0;orthogonalLoop=1;jettySize=auto;html=1;exitX=0.5;exitY=1;exitDx=0;exitDy=0;endArrow=none;endFill=0;" parent="1" source="b-2rTRyFEP5zb1sUs2k6-16" edge="1">
          <mxGeometry relative="1" as="geometry">
            <mxPoint x="380" y="370" as="targetPoint" />
          </mxGeometry>
        </mxCell>
        <mxCell id="b-2rTRyFEP5zb1sUs2k6-16" value="&lt;u&gt;E-Mail&lt;/u&gt;" style="ellipse;whiteSpace=wrap;html=1;align=center;" parent="1" vertex="1">
          <mxGeometry x="380" y="210" width="100" height="40" as="geometry" />
        </mxCell>
        <mxCell id="b-2rTRyFEP5zb1sUs2k6-21" style="edgeStyle=none;rounded=0;orthogonalLoop=1;jettySize=auto;html=1;exitX=0.5;exitY=1;exitDx=0;exitDy=0;entryX=0.5;entryY=0;entryDx=0;entryDy=0;endArrow=none;endFill=0;" parent="1" target="b-2rTRyFEP5zb1sUs2k6-4" edge="1">
          <mxGeometry relative="1" as="geometry">
            <mxPoint x="60" y="250" as="sourcePoint" />
          </mxGeometry>
        </mxCell>
        <mxCell id="b-2rTRyFEP5zb1sUs2k6-19" value="Nummer" style="ellipse;whiteSpace=wrap;html=1;align=center;" parent="1" vertex="1">
          <mxGeometry x="10" y="210" width="100" height="40" as="geometry" />
        </mxCell>
        <mxCell id="b-2rTRyFEP5zb1sUs2k6-22" style="edgeStyle=none;rounded=0;orthogonalLoop=1;jettySize=auto;html=1;exitX=0.5;exitY=1;exitDx=0;exitDy=0;endArrow=none;endFill=0;" parent="1" source="b-2rTRyFEP5zb1sUs2k6-20" edge="1">
          <mxGeometry relative="1" as="geometry">
            <mxPoint x="70" y="370" as="targetPoint" />
          </mxGeometry>
        </mxCell>
        <mxCell id="b-2rTRyFEP5zb1sUs2k6-20" value="Ablaufdatum" style="ellipse;whiteSpace=wrap;html=1;align=center;" parent="1" vertex="1">
          <mxGeometry x="70" y="250" width="100" height="40" as="geometry" />
        </mxCell>
        <mxCell id="b-2rTRyFEP5zb1sUs2k6-37" style="edgeStyle=none;rounded=0;orthogonalLoop=1;jettySize=auto;html=1;exitX=0;exitY=1;exitDx=0;exitDy=0;entryX=1;entryY=0.5;entryDx=0;entryDy=0;endArrow=none;endFill=0;" parent="1" source="b-2rTRyFEP5zb1sUs2k6-23" target="b-2rTRyFEP5zb1sUs2k6-29" edge="1">
          <mxGeometry relative="1" as="geometry" />
        </mxCell>
        <mxCell id="CCypWrJoro0KJ7EVF3am-12" style="edgeStyle=none;rounded=0;orthogonalLoop=1;jettySize=auto;html=1;exitX=0.5;exitY=0;exitDx=0;exitDy=0;entryX=0.5;entryY=1;entryDx=0;entryDy=0;endArrow=none;endFill=0;" edge="1" parent="1" source="b-2rTRyFEP5zb1sUs2k6-23" target="b-2rTRyFEP5zb1sUs2k6-38">
          <mxGeometry relative="1" as="geometry" />
        </mxCell>
        <mxCell id="CCypWrJoro0KJ7EVF3am-19" style="edgeStyle=none;rounded=0;orthogonalLoop=1;jettySize=auto;html=1;exitX=0.5;exitY=1;exitDx=0;exitDy=0;entryX=0.5;entryY=0;entryDx=0;entryDy=0;endArrow=none;endFill=0;" edge="1" parent="1" source="b-2rTRyFEP5zb1sUs2k6-23" target="CCypWrJoro0KJ7EVF3am-5">
          <mxGeometry relative="1" as="geometry" />
        </mxCell>
        <mxCell id="CCypWrJoro0KJ7EVF3am-20" style="edgeStyle=none;rounded=0;orthogonalLoop=1;jettySize=auto;html=1;exitX=0.5;exitY=1;exitDx=0;exitDy=0;entryX=0.5;entryY=0;entryDx=0;entryDy=0;endArrow=none;endFill=0;" edge="1" parent="1" source="b-2rTRyFEP5zb1sUs2k6-23" target="CCypWrJoro0KJ7EVF3am-6">
          <mxGeometry relative="1" as="geometry" />
        </mxCell>
        <mxCell id="CCypWrJoro0KJ7EVF3am-26" style="edgeStyle=orthogonalEdgeStyle;rounded=0;orthogonalLoop=1;jettySize=auto;html=1;exitX=1;exitY=0.5;exitDx=0;exitDy=0;endArrow=none;endFill=0;" edge="1" parent="1" source="b-2rTRyFEP5zb1sUs2k6-23">
          <mxGeometry relative="1" as="geometry">
            <mxPoint x="1010" y="490" as="targetPoint" />
          </mxGeometry>
        </mxCell>
        <mxCell id="CCypWrJoro0KJ7EVF3am-42" style="edgeStyle=none;rounded=0;orthogonalLoop=1;jettySize=auto;html=1;exitX=0.5;exitY=1;exitDx=0;exitDy=0;entryX=0;entryY=0.5;entryDx=0;entryDy=0;endArrow=none;endFill=0;" edge="1" parent="1" source="b-2rTRyFEP5zb1sUs2k6-23" target="CCypWrJoro0KJ7EVF3am-41">
          <mxGeometry relative="1" as="geometry" />
        </mxCell>
        <mxCell id="b-2rTRyFEP5zb1sUs2k6-23" value="Fahrten" style="whiteSpace=wrap;html=1;align=center;" parent="1" vertex="1">
          <mxGeometry x="770" y="370" width="100" height="40" as="geometry" />
        </mxCell>
        <mxCell id="b-2rTRyFEP5zb1sUs2k6-31" style="edgeStyle=none;rounded=0;orthogonalLoop=1;jettySize=auto;html=1;exitX=1;exitY=0.5;exitDx=0;exitDy=0;entryX=0;entryY=0;entryDx=0;entryDy=0;endArrow=none;endFill=0;" parent="1" source="b-2rTRyFEP5zb1sUs2k6-24" target="b-2rTRyFEP5zb1sUs2k6-23" edge="1">
          <mxGeometry relative="1" as="geometry" />
        </mxCell>
        <mxCell id="b-2rTRyFEP5zb1sUs2k6-24" value="reservieren" style="shape=rhombus;perimeter=rhombusPerimeter;whiteSpace=wrap;html=1;align=center;" parent="1" vertex="1">
          <mxGeometry x="530" y="230" width="120" height="60" as="geometry" />
        </mxCell>
        <mxCell id="b-2rTRyFEP5zb1sUs2k6-33" style="edgeStyle=none;rounded=0;orthogonalLoop=1;jettySize=auto;html=1;exitX=1;exitY=0.5;exitDx=0;exitDy=0;entryX=0;entryY=0.5;entryDx=0;entryDy=0;endArrow=none;endFill=0;" parent="1" source="b-2rTRyFEP5zb1sUs2k6-27" target="b-2rTRyFEP5zb1sUs2k6-23" edge="1">
          <mxGeometry relative="1" as="geometry" />
        </mxCell>
        <mxCell id="b-2rTRyFEP5zb1sUs2k6-27" value="erstellen" style="shape=rhombus;perimeter=rhombusPerimeter;whiteSpace=wrap;html=1;align=center;" parent="1" vertex="1">
          <mxGeometry x="530" y="310" width="120" height="60" as="geometry" />
        </mxCell>
        <mxCell id="b-2rTRyFEP5zb1sUs2k6-35" style="edgeStyle=none;rounded=0;orthogonalLoop=1;jettySize=auto;html=1;exitX=1;exitY=0.5;exitDx=0;exitDy=0;entryX=0;entryY=0.75;entryDx=0;entryDy=0;endArrow=none;endFill=0;" parent="1" source="b-2rTRyFEP5zb1sUs2k6-28" target="b-2rTRyFEP5zb1sUs2k6-23" edge="1">
          <mxGeometry relative="1" as="geometry" />
        </mxCell>
        <mxCell id="b-2rTRyFEP5zb1sUs2k6-28" value="löschen" style="shape=rhombus;perimeter=rhombusPerimeter;whiteSpace=wrap;html=1;align=center;" parent="1" vertex="1">
          <mxGeometry x="530" y="390" width="120" height="60" as="geometry" />
        </mxCell>
        <mxCell id="CCypWrJoro0KJ7EVF3am-48" style="edgeStyle=none;rounded=0;orthogonalLoop=1;jettySize=auto;html=1;exitX=0.5;exitY=1;exitDx=0;exitDy=0;entryX=1;entryY=0.5;entryDx=0;entryDy=0;endArrow=none;endFill=0;" edge="1" parent="1" source="b-2rTRyFEP5zb1sUs2k6-29" target="CCypWrJoro0KJ7EVF3am-44">
          <mxGeometry relative="1" as="geometry" />
        </mxCell>
        <mxCell id="CCypWrJoro0KJ7EVF3am-49" style="edgeStyle=none;rounded=0;orthogonalLoop=1;jettySize=auto;html=1;exitX=0.5;exitY=1;exitDx=0;exitDy=0;entryX=1;entryY=0.5;entryDx=0;entryDy=0;endArrow=none;endFill=0;" edge="1" parent="1" source="b-2rTRyFEP5zb1sUs2k6-29" target="CCypWrJoro0KJ7EVF3am-45">
          <mxGeometry relative="1" as="geometry" />
        </mxCell>
        <mxCell id="CCypWrJoro0KJ7EVF3am-51" style="edgeStyle=none;rounded=0;orthogonalLoop=1;jettySize=auto;html=1;exitX=0.5;exitY=1;exitDx=0;exitDy=0;entryX=1;entryY=0.5;entryDx=0;entryDy=0;endArrow=none;endFill=0;" edge="1" parent="1" source="b-2rTRyFEP5zb1sUs2k6-29" target="CCypWrJoro0KJ7EVF3am-47">
          <mxGeometry relative="1" as="geometry" />
        </mxCell>
        <mxCell id="CCypWrJoro0KJ7EVF3am-53" style="edgeStyle=none;rounded=0;orthogonalLoop=1;jettySize=auto;html=1;exitX=0.5;exitY=1;exitDx=0;exitDy=0;entryX=1;entryY=0.5;entryDx=0;entryDy=0;endArrow=none;endFill=0;" edge="1" parent="1" source="b-2rTRyFEP5zb1sUs2k6-29" target="CCypWrJoro0KJ7EVF3am-52">
          <mxGeometry relative="1" as="geometry" />
        </mxCell>
        <mxCell id="b-2rTRyFEP5zb1sUs2k6-29" value="bewerten" style="shape=rhombus;perimeter=rhombusPerimeter;whiteSpace=wrap;html=1;align=center;" parent="1" vertex="1">
          <mxGeometry x="530" y="470" width="120" height="60" as="geometry" />
        </mxCell>
        <mxCell id="b-2rTRyFEP5zb1sUs2k6-38" value="&lt;u&gt;IDFahrten&lt;/u&gt;" style="ellipse;whiteSpace=wrap;html=1;align=center;" parent="1" vertex="1">
          <mxGeometry x="630" y="140" width="100" height="40" as="geometry" />
        </mxCell>
        <mxCell id="CCypWrJoro0KJ7EVF3am-13" style="edgeStyle=none;rounded=0;orthogonalLoop=1;jettySize=auto;html=1;exitX=0.5;exitY=1;exitDx=0;exitDy=0;entryX=0.5;entryY=0;entryDx=0;entryDy=0;endArrow=none;endFill=0;" edge="1" parent="1" source="b-2rTRyFEP5zb1sUs2k6-44" target="b-2rTRyFEP5zb1sUs2k6-23">
          <mxGeometry relative="1" as="geometry" />
        </mxCell>
        <mxCell id="b-2rTRyFEP5zb1sUs2k6-44" value="Startort" style="ellipse;whiteSpace=wrap;html=1;align=center;" parent="1" vertex="1">
          <mxGeometry x="700" y="170" width="100" height="40" as="geometry" />
        </mxCell>
        <mxCell id="CCypWrJoro0KJ7EVF3am-14" style="edgeStyle=none;rounded=0;orthogonalLoop=1;jettySize=auto;html=1;exitX=0.5;exitY=1;exitDx=0;exitDy=0;entryX=0.5;entryY=0;entryDx=0;entryDy=0;endArrow=none;endFill=0;" edge="1" parent="1" source="b-2rTRyFEP5zb1sUs2k6-45" target="b-2rTRyFEP5zb1sUs2k6-23">
          <mxGeometry relative="1" as="geometry" />
        </mxCell>
        <mxCell id="b-2rTRyFEP5zb1sUs2k6-45" value="Zielort" style="ellipse;whiteSpace=wrap;html=1;align=center;" parent="1" vertex="1">
          <mxGeometry x="760" y="210" width="100" height="40" as="geometry" />
        </mxCell>
        <mxCell id="CCypWrJoro0KJ7EVF3am-15" style="edgeStyle=none;rounded=0;orthogonalLoop=1;jettySize=auto;html=1;exitX=0.5;exitY=1;exitDx=0;exitDy=0;entryX=0.5;entryY=0;entryDx=0;entryDy=0;endArrow=none;endFill=0;" edge="1" parent="1" source="b-2rTRyFEP5zb1sUs2k6-46" target="b-2rTRyFEP5zb1sUs2k6-23">
          <mxGeometry relative="1" as="geometry" />
        </mxCell>
        <mxCell id="b-2rTRyFEP5zb1sUs2k6-46" value="Fahrtdatum" style="ellipse;whiteSpace=wrap;html=1;align=center;" parent="1" vertex="1">
          <mxGeometry x="820" y="250" width="100" height="40" as="geometry" />
        </mxCell>
        <mxCell id="CCypWrJoro0KJ7EVF3am-16" style="edgeStyle=none;rounded=0;orthogonalLoop=1;jettySize=auto;html=1;exitX=0.5;exitY=1;exitDx=0;exitDy=0;entryX=0.5;entryY=0;entryDx=0;entryDy=0;endArrow=none;endFill=0;" edge="1" parent="1" source="CCypWrJoro0KJ7EVF3am-1" target="b-2rTRyFEP5zb1sUs2k6-23">
          <mxGeometry relative="1" as="geometry" />
        </mxCell>
        <mxCell id="CCypWrJoro0KJ7EVF3am-1" value="Fahrtuhrzeit" style="ellipse;whiteSpace=wrap;html=1;align=center;" vertex="1" parent="1">
          <mxGeometry x="870" y="290" width="100" height="40" as="geometry" />
        </mxCell>
        <mxCell id="CCypWrJoro0KJ7EVF3am-21" style="edgeStyle=none;rounded=0;orthogonalLoop=1;jettySize=auto;html=1;exitX=0;exitY=0.5;exitDx=0;exitDy=0;entryX=0.5;entryY=0;entryDx=0;entryDy=0;endArrow=none;endFill=0;" edge="1" parent="1" source="CCypWrJoro0KJ7EVF3am-4" target="b-2rTRyFEP5zb1sUs2k6-23">
          <mxGeometry relative="1" as="geometry" />
        </mxCell>
        <mxCell id="CCypWrJoro0KJ7EVF3am-4" value="Anzahl maximaler Plätze" style="ellipse;whiteSpace=wrap;html=1;align=center;" vertex="1" parent="1">
          <mxGeometry x="910" y="340" width="100" height="40" as="geometry" />
        </mxCell>
        <mxCell id="CCypWrJoro0KJ7EVF3am-5" value="Beschreibung" style="ellipse;whiteSpace=wrap;html=1;align=center;" vertex="1" parent="1">
          <mxGeometry x="700" y="470" width="100" height="30" as="geometry" />
        </mxCell>
        <mxCell id="CCypWrJoro0KJ7EVF3am-6" value="Fahrtkosten" style="ellipse;whiteSpace=wrap;html=1;align=center;" vertex="1" parent="1">
          <mxGeometry x="780" y="440" width="100" height="40" as="geometry" />
        </mxCell>
        <mxCell id="CCypWrJoro0KJ7EVF3am-24" style="edgeStyle=none;rounded=0;orthogonalLoop=1;jettySize=auto;html=1;exitX=0.5;exitY=1;exitDx=0;exitDy=0;entryX=0.5;entryY=0;entryDx=0;entryDy=0;endArrow=none;endFill=0;" edge="1" parent="1" source="CCypWrJoro0KJ7EVF3am-22" target="b-2rTRyFEP5zb1sUs2k6-24">
          <mxGeometry relative="1" as="geometry" />
        </mxCell>
        <mxCell id="CCypWrJoro0KJ7EVF3am-22" value="Anzahl zu reservierenden Plätze" style="ellipse;whiteSpace=wrap;html=1;align=center;" vertex="1" parent="1">
          <mxGeometry x="540" y="170" width="100" height="40" as="geometry" />
        </mxCell>
        <mxCell id="CCypWrJoro0KJ7EVF3am-30" style="edgeStyle=orthogonalEdgeStyle;rounded=0;orthogonalLoop=1;jettySize=auto;html=1;exitX=0.5;exitY=1;exitDx=0;exitDy=0;entryX=0.5;entryY=0;entryDx=0;entryDy=0;endArrow=none;endFill=0;" edge="1" parent="1" source="CCypWrJoro0KJ7EVF3am-27" target="CCypWrJoro0KJ7EVF3am-29">
          <mxGeometry relative="1" as="geometry" />
        </mxCell>
        <mxCell id="CCypWrJoro0KJ7EVF3am-27" value="zuordnen" style="shape=rhombus;perimeter=rhombusPerimeter;whiteSpace=wrap;html=1;align=center;" vertex="1" parent="1">
          <mxGeometry x="950" y="455" width="120" height="60" as="geometry" />
        </mxCell>
        <mxCell id="CCypWrJoro0KJ7EVF3am-29" value="Transportmittel" style="whiteSpace=wrap;html=1;align=center;" vertex="1" parent="1">
          <mxGeometry x="960" y="610" width="100" height="40" as="geometry" />
        </mxCell>
        <mxCell id="CCypWrJoro0KJ7EVF3am-37" style="edgeStyle=none;rounded=0;orthogonalLoop=1;jettySize=auto;html=1;exitX=1;exitY=0.5;exitDx=0;exitDy=0;entryX=0;entryY=0.5;entryDx=0;entryDy=0;endArrow=none;endFill=0;" edge="1" parent="1" source="CCypWrJoro0KJ7EVF3am-31" target="CCypWrJoro0KJ7EVF3am-29">
          <mxGeometry relative="1" as="geometry" />
        </mxCell>
        <mxCell id="CCypWrJoro0KJ7EVF3am-31" value="&lt;u&gt;IDTransportmittel&lt;/u&gt;" style="ellipse;whiteSpace=wrap;html=1;align=center;" vertex="1" parent="1">
          <mxGeometry x="750" y="610" width="100" height="40" as="geometry" />
        </mxCell>
        <mxCell id="CCypWrJoro0KJ7EVF3am-38" style="edgeStyle=none;rounded=0;orthogonalLoop=1;jettySize=auto;html=1;exitX=1;exitY=0.5;exitDx=0;exitDy=0;endArrow=none;endFill=0;" edge="1" parent="1" source="CCypWrJoro0KJ7EVF3am-32">
          <mxGeometry relative="1" as="geometry">
            <mxPoint x="960" y="630" as="targetPoint" />
          </mxGeometry>
        </mxCell>
        <mxCell id="CCypWrJoro0KJ7EVF3am-32" value="Namen" style="ellipse;whiteSpace=wrap;html=1;align=center;" vertex="1" parent="1">
          <mxGeometry x="750" y="650" width="100" height="40" as="geometry" />
        </mxCell>
        <mxCell id="CCypWrJoro0KJ7EVF3am-39" style="edgeStyle=none;rounded=0;orthogonalLoop=1;jettySize=auto;html=1;exitX=1;exitY=0.5;exitDx=0;exitDy=0;entryX=0;entryY=0.5;entryDx=0;entryDy=0;endArrow=none;endFill=0;" edge="1" parent="1" source="CCypWrJoro0KJ7EVF3am-33" target="CCypWrJoro0KJ7EVF3am-29">
          <mxGeometry relative="1" as="geometry" />
        </mxCell>
        <mxCell id="CCypWrJoro0KJ7EVF3am-33" value="Icon" style="ellipse;whiteSpace=wrap;html=1;align=center;" vertex="1" parent="1">
          <mxGeometry x="750" y="690" width="100" height="40" as="geometry" />
        </mxCell>
        <mxCell id="CCypWrJoro0KJ7EVF3am-41" value="Status" style="ellipse;whiteSpace=wrap;html=1;align=center;dashed=1;" vertex="1" parent="1">
          <mxGeometry x="870" y="410" width="100" height="40" as="geometry" />
        </mxCell>
        <mxCell id="CCypWrJoro0KJ7EVF3am-44" value="&lt;u&gt;IDbewerten&lt;/u&gt;" style="ellipse;whiteSpace=wrap;html=1;align=center;" vertex="1" parent="1">
          <mxGeometry x="450" y="530" width="100" height="40" as="geometry" />
        </mxCell>
        <mxCell id="CCypWrJoro0KJ7EVF3am-45" value="Textnachricht" style="ellipse;whiteSpace=wrap;html=1;align=center;" vertex="1" parent="1">
          <mxGeometry x="450" y="570" width="100" height="40" as="geometry" />
        </mxCell>
        <mxCell id="CCypWrJoro0KJ7EVF3am-47" value="Erstellungsdatum" style="ellipse;whiteSpace=wrap;html=1;align=center;" vertex="1" parent="1">
          <mxGeometry x="450" y="650" width="100" height="40" as="geometry" />
        </mxCell>
        <mxCell id="CCypWrJoro0KJ7EVF3am-52" value="Rating" style="ellipse;whiteSpace=wrap;html=1;align=center;dashed=1;" vertex="1" parent="1">
          <mxGeometry x="450" y="610" width="100" height="40" as="geometry" />
        </mxCell>
        <mxCell id="CCypWrJoro0KJ7EVF3am-54" value="N" style="text;html=1;align=center;verticalAlign=middle;resizable=0;points=[];autosize=1;strokeColor=none;fillColor=none;" vertex="1" parent="1">
          <mxGeometry x="890" y="370" width="20" height="20" as="geometry" />
        </mxCell>
        <mxCell id="CCypWrJoro0KJ7EVF3am-55" value="1" style="text;html=1;align=center;verticalAlign=middle;resizable=0;points=[];autosize=1;strokeColor=none;fillColor=none;" vertex="1" parent="1">
          <mxGeometry x="1010" y="580" width="20" height="20" as="geometry" />
        </mxCell>
        <mxCell id="CCypWrJoro0KJ7EVF3am-56" value="1" style="text;html=1;align=center;verticalAlign=middle;resizable=0;points=[];autosize=1;strokeColor=none;fillColor=none;" vertex="1" parent="1">
          <mxGeometry x="480" y="330" width="20" height="20" as="geometry" />
        </mxCell>
        <mxCell id="CCypWrJoro0KJ7EVF3am-57" value="N" style="text;html=1;align=center;verticalAlign=middle;resizable=0;points=[];autosize=1;strokeColor=none;fillColor=none;" vertex="1" parent="1">
          <mxGeometry x="700" y="335" width="20" height="20" as="geometry" />
        </mxCell>
        <mxCell id="CCypWrJoro0KJ7EVF3am-59" value="1" style="text;html=1;align=center;verticalAlign=middle;resizable=0;points=[];autosize=1;strokeColor=none;fillColor=none;" vertex="1" parent="1">
          <mxGeometry x="480" y="390" width="20" height="20" as="geometry" />
        </mxCell>
        <mxCell id="CCypWrJoro0KJ7EVF3am-60" value="N" style="text;html=1;align=center;verticalAlign=middle;resizable=0;points=[];autosize=1;strokeColor=none;fillColor=none;" vertex="1" parent="1">
          <mxGeometry x="700" y="380" width="20" height="20" as="geometry" />
        </mxCell>
        <mxCell id="CCypWrJoro0KJ7EVF3am-62" value="N" style="text;html=1;align=center;verticalAlign=middle;resizable=0;points=[];autosize=1;strokeColor=none;fillColor=none;" vertex="1" parent="1">
          <mxGeometry x="480" y="440" width="20" height="20" as="geometry" />
        </mxCell>
        <mxCell id="CCypWrJoro0KJ7EVF3am-63" value="M" style="text;html=1;align=center;verticalAlign=middle;resizable=0;points=[];autosize=1;strokeColor=none;fillColor=none;" vertex="1" parent="1">
          <mxGeometry x="695" y="435" width="30" height="20" as="geometry" />
        </mxCell>
        <mxCell id="CCypWrJoro0KJ7EVF3am-67" value="N" style="text;html=1;align=center;verticalAlign=middle;resizable=0;points=[];autosize=1;strokeColor=none;fillColor=none;" vertex="1" parent="1">
          <mxGeometry x="480" y="270" width="20" height="20" as="geometry" />
        </mxCell>
        <mxCell id="CCypWrJoro0KJ7EVF3am-68" value="M" style="text;html=1;align=center;verticalAlign=middle;resizable=0;points=[];autosize=1;strokeColor=none;fillColor=none;" vertex="1" parent="1">
          <mxGeometry x="690" y="270" width="30" height="20" as="geometry" />
        </mxCell>
        <mxCell id="CCypWrJoro0KJ7EVF3am-69" value="N" style="text;html=1;align=center;verticalAlign=middle;resizable=0;points=[];autosize=1;strokeColor=none;fillColor=none;" vertex="1" parent="1">
          <mxGeometry x="130" y="360" width="20" height="20" as="geometry" />
        </mxCell>
        <mxCell id="CCypWrJoro0KJ7EVF3am-70" value="1" style="text;html=1;align=center;verticalAlign=middle;resizable=0;points=[];autosize=1;strokeColor=none;fillColor=none;" vertex="1" parent="1">
          <mxGeometry x="300" y="360" width="20" height="20" as="geometry" />
        </mxCell>
      </root>
    </mxGraphModel>
  </diagram>
</mxfile>
